<?xml version="1.0" encoding="utf-8"?>
<!-- Generator: Adobe Illustrator 15.1.0, SVG Export Plug-In . SVG Version: 6.00 Build 0)  -->
<!DOCTYPE svg PUBLIC "-//W3C//DTD SVG 1.1//EN" "http://www.w3.org/Graphics/SVG/1.1/DTD/svg11.dtd">
<svg version="1.1" id="Layer_1" xmlns="http://www.w3.org/2000/svg" xmlns:xlink="http://www.w3.org/1999/xlink" x="0px" y="0px"
	 width="283.464px" height="71.183px" viewBox="-24.637 -0.401 283.464 71.183"
	 enable-background="new -24.637 -0.401 283.464 71.183" xml:space="preserve">
<g>
	<g>
		<path fill="#DF283F" d="M-4.298,35.191c0,5.614-4.554,10.17-10.169,10.17c-5.616,0-10.17-4.556-10.17-10.17
			c0-5.616,4.553-10.168,10.17-10.168C-8.852,25.021-4.298,29.575-4.298,35.191z"/>
		<path fill="#1C4A87" d="M56.718,35.191c0,5.614-4.554,10.17-10.17,10.17c-5.615,0-10.169-4.556-10.169-10.17
			c0-5.616,4.554-10.168,10.169-10.168C52.163,25.021,56.718,29.575,56.718,35.191z"/>
		<path fill="#128669" d="M41.463,9.768c0,5.616-4.553,10.169-10.17,10.169c-5.616,0-10.169-4.553-10.169-10.169
			c0-5.616,4.554-10.169,10.169-10.169C36.909-0.401,41.463,4.152,41.463,9.768z"/>
		<path fill="#1C4A87" d="M10.955,9.768c0,5.616-4.554,10.169-10.169,10.169c-5.616,0-10.17-4.553-10.17-10.169
			c0-5.616,4.554-10.169,10.17-10.169S10.955,4.152,10.955,9.768z"/>
		<path fill="#1D8DCD" d="M41.463,60.614c0,5.616-4.553,10.169-10.17,10.169c-5.616,0-10.169-4.553-10.169-10.169
			c0-5.618,4.554-10.169,10.169-10.169C36.909,50.445,41.463,54.996,41.463,60.614z"/>
		<path fill="#1C4A87" d="M10.955,60.614c0,5.616-4.554,10.169-10.169,10.169c-5.616,0-10.17-4.553-10.17-10.169
			c0-5.618,4.554-10.169,10.17-10.169S10.955,54.996,10.955,60.614z"/>
	</g>
	<g>
		<path fill="#DF283F" d="M124.786,15.711C119.452,10.504,112.859,7.9,105.01,7.9c-7.85,0-14.441,2.604-19.773,7.811
			c-5.334,5.208-7.999,11.698-7.999,19.473c0,7.773,2.666,14.265,7.999,19.473c5.332,5.206,11.923,7.812,19.773,7.812
			c7.849,0,14.44-2.605,19.775-7.812c5.332-5.208,7.999-11.699,7.999-19.473C132.787,27.41,130.118,20.919,124.786,15.711z
			 M123.654,35.184c0,5.309-1.801,9.824-5.396,13.547c-3.599,3.725-8.014,5.586-13.245,5.586c-5.233,0-9.65-1.861-13.246-5.586
			c-3.599-3.723-5.396-8.238-5.396-13.547s1.799-9.823,5.396-13.547c3.596-3.723,8.013-5.584,13.246-5.584
			c5.231,0,9.646,1.861,13.245,5.584C121.853,25.36,123.654,29.875,123.654,35.184z"/>
		<polygon fill="#128669" points="190.448,9.708 174.521,42.842 158.596,9.708 144.743,9.708 144.743,62.459 153.64,62.459 
			153.64,21.258 171.955,57.85 176.935,57.85 195.348,21.258 195.348,62.459 204.248,62.459 204.248,9.708 		"/>
		<polygon fill="#1D8DCD" points="229.749,54.041 229.749,39.976 255.013,39.976 255.013,32.033 229.749,32.033 229.749,18.051 
			257.951,18.051 257.951,9.708 220.852,9.708 220.852,62.459 258.827,62.459 258.827,54.041 		"/>
	</g>
</g>
</svg>
