<?xml version="1.0" encoding="utf-8"?>
<!-- Generator: Adobe Illustrator 15.1.0, SVG Export Plug-In . SVG Version: 6.00 Build 0)  -->
<!DOCTYPE svg PUBLIC "-//W3C//DTD SVG 1.1//EN" "http://www.w3.org/Graphics/SVG/1.1/DTD/svg11.dtd">
<svg version="1.1" id="Layer_1" xmlns="http://www.w3.org/2000/svg" xmlns:xlink="http://www.w3.org/1999/xlink" x="0px" y="0px"
	 width="283.137px" height="49.441px" viewBox="0 0 283.137 49.441" enable-background="new 0 0 283.137 49.441"
	 xml:space="preserve">
<g>
	<g>
		<path fill="#DF2940" d="M5.376,17.328c-0.262-0.266-0.572-0.396-0.875-0.396c-0.385,0-0.759,0.211-1.003,0.619l-1.75,2.916
			L0,23.382c-0.437,0.729-0.437,1.921,0,2.649l1.749,2.916l1.75,2.916c0.245,0.408,0.618,0.619,1.003,0.619
			c0.303,0,0.613-0.129,0.875-0.396c0,0,3.599-3.659,3.714-7.206c0.001-0.058,0.002-0.115,0.002-0.173
			c0-0.058-0.001-0.115-0.002-0.173C8.976,20.987,5.376,17.328,5.376,17.328z"/>
		<path fill="#1D4B88" d="M57.74,23.382l-1.749-2.915l-1.749-2.916c-0.245-0.408-0.618-0.619-1.004-0.619
			c-0.302,0-0.612,0.13-0.875,0.396c0,0-3.599,3.659-3.714,7.206c-0.001,0.058-0.003,0.115-0.003,0.173
			c0,0.058,0.002,0.115,0.003,0.173c0.115,3.547,3.714,7.206,3.714,7.206c0.262,0.266,0.572,0.396,0.875,0.396
			c0.386,0,0.759-0.211,1.004-0.619l1.75-2.916l1.749-2.916C58.177,25.303,58.177,24.11,57.74,23.382z"/>
		<path fill="#1D4B88" d="M37.522,24.707c0-4.778-3.875-8.652-8.652-8.652c-4.778,0-8.652,3.874-8.652,8.652
			s3.874,8.652,8.652,8.652C33.648,33.359,37.522,29.485,37.522,24.707z"/>
		<path fill="#17866A" d="M43.703,9.877c0.07,0,0.14-0.004,0.209-0.005c1.785-0.055,3.462-0.788,3.462-0.788
			c0.779-0.34,1.058-1.214,0.621-1.943l-1.749-2.916l-1.75-2.908C44.06,0.589,43.007,0,42.157,0h-6.798
			c-0.85,0-1.261,0.627-0.914,1.403C34.445,1.403,38.242,9.877,43.703,9.877z"/>
		<path fill="#1D4B88" d="M10.366,9.084c0,0,1.677,0.731,3.462,0.787c0.07,0.001,0.14,0.007,0.21,0.007
			c5.461,0,9.257-8.475,9.257-8.475C23.642,0.627,23.23,0,22.381,0h-6.798c-0.85,0-1.902,0.589-2.34,1.317l-1.749,2.912L9.745,7.143
			C9.307,7.872,9.587,8.745,10.366,9.084z"/>
		<path fill="#218DCD" d="M47.375,40.33c0,0-1.678-0.732-3.462-0.787c-0.07-0.001-0.14-0.004-0.21-0.004
			c-5.46,0-9.257,8.485-9.257,8.485c-0.347,0.775,0.064,1.417,0.914,1.417h6.798c0.85,0,1.902-0.603,2.34-1.332l1.75-2.919
			l1.749-2.917C48.433,41.545,48.153,40.67,47.375,40.33z"/>
		<path fill="#1D4B88" d="M14.038,39.542c-0.07,0-0.14,0-0.21,0.002c-1.785,0.055-3.462,0.786-3.462,0.786
			c-0.779,0.34-1.059,1.214-0.621,1.942l1.749,2.915l1.75,2.922c0.437,0.729,1.49,1.332,2.339,1.332h6.798
			c0.85,0,1.261-0.642,0.914-1.417C23.294,48.024,19.499,39.542,14.038,39.542z"/>
	</g>
	<g>
		<path fill="#DF2940" d="M105.221,11.232c-3.704-3.617-8.282-5.426-13.734-5.426c-5.451,0-10.03,1.809-13.734,5.426
			c-3.705,3.617-5.557,8.125-5.557,13.524s1.852,9.908,5.557,13.525c3.704,3.617,8.283,5.425,13.734,5.425
			c5.452,0,10.03-1.809,13.734-5.425c3.704-3.617,5.557-8.125,5.557-13.525S108.925,14.849,105.221,11.232z M104.435,24.757
			c0,3.688-1.249,6.824-3.748,9.41c-2.499,2.586-5.565,3.879-9.2,3.879s-6.701-1.293-9.2-3.879c-2.499-2.586-3.748-5.722-3.748-9.41
			c0-3.687,1.249-6.823,3.748-9.41c2.499-2.586,5.565-3.879,9.2-3.879s6.701,1.293,9.2,3.879
			C103.186,17.934,104.435,21.07,104.435,24.757z"/>
		<polygon fill="#17866A" points="150.827,7.063 139.766,30.076 128.705,7.063 119.027,7.063 119.027,43.703 125.207,43.703 
			125.207,15.085 137.983,40.502 141.443,40.502 154.231,15.085 154.231,43.703 160.412,43.703 160.412,7.063 		"/>
		<polygon fill="#218DCD" points="178.125,37.909 178.125,28.087 195.672,28.087 195.672,22.569 178.125,22.569 178.125,12.857 
			197.659,12.857 197.659,7.063 171.944,7.063 171.944,43.703 198.321,43.703 198.321,37.909 		"/>
		<path fill="#1D4B88" d="M229.091,30.39c5.276-1.573,7.916-5.38,7.916-11.427c0-4.159-1.206-7.182-3.617-9.069
			s-6.414-2.831-12.005-2.831h-13.684v36.64h6.235V31.397h8.13l8.755,12.305h7.862L229.091,30.39z M213.937,12.691h7.868
			c3.319,0,5.626,0.437,6.919,1.328s1.939,2.53,1.939,4.923c0,2.395-0.629,4.126-1.887,5.209c-1.258,1.083-3.635,1.618-7.129,1.618
			h-7.711V12.691z"/>
		<path fill="#1D4B88" d="M277.58,11.232c-3.705-3.617-8.282-5.426-13.734-5.426s-10.03,1.809-13.734,5.426
			c-3.704,3.617-5.557,8.125-5.557,13.524s1.853,9.908,5.557,13.525c3.704,3.617,8.282,5.425,13.734,5.425
			s10.029-1.809,13.734-5.425c3.704-3.617,5.557-8.125,5.557-13.525S281.284,14.849,277.58,11.232z M276.794,24.757
			c0,3.688-1.25,6.824-3.748,9.41c-2.499,2.586-5.565,3.879-9.2,3.879s-6.702-1.293-9.2-3.879c-2.499-2.586-3.748-5.722-3.748-9.41
			c0-3.687,1.249-6.823,3.748-9.41c2.498-2.586,5.565-3.879,9.2-3.879c3.634,0,6.701,1.293,9.2,3.879
			C275.544,17.934,276.794,21.07,276.794,24.757z"/>
	</g>
</g>
</svg>
